#N canvas 700 32 1172 966 12;
#X declare -lib Gem;
#X obj 272 60 declare -lib Gem;
#X obj 1285 101 gemwin;
#X msg 1320 15 create \, 1;
#X msg 1513 24 0 \, detroy;
#X msg 1399 102 dimen 640 480;
#X obj 72 69 gemhead;
#X obj 68 294 colorRGB;
#X obj 188 367 scaleXYZ;
#X obj 189 591 rotateXYZ;
#X obj 201 842 sphere;
#X obj 331 620 loadbang;
#X msg 495 683 draw line;
#X floatatom 163 215 5 0 0 0 - - - 0;
#X floatatom 214 215 5 0 0 0 - - - 0;
#X floatatom 112 216 5 0 0 0 - - - 0;
#X floatatom 226 260 5 0 0 0 - - - 0;
#X floatatom 285 553 5 0 0 0 - - - 0;
#X floatatom 246 531 5 0 0 0 - - - 0;
#X obj 435 419 osc~ 0.25;
#X obj 431 469 snapshot~;
#X obj 397 526 * 360;
#X floatatom 370 567 5 0 0 0 - - - 0;
#X obj 546 442 metro 50;
#X obj 581 384 tgl 15 0 empty empty empty 17 7 0 10 #fcfcfc #000000
#000000 0 1;
#X obj 642 477 snapshot~;
#X obj 608 534 * 360;
#X obj 757 450 metro 50;
#X obj 860 473 snapshot~;
#X obj 826 530 * 360;
#X obj 975 446 metro 50;
#X obj 646 427 osc~ 0.4;
#X obj 879 394 osc~ 0.9;
#X obj 342 268 bng 15 250 50 0 empty empty empty 17 7 0 10 #fcfcfc
#000000 #000000;
#X obj 379 291 delay 10;
#X msg 322 324 0.5 10;
#X msg 424 326 2.5 200;
#X obj 316 362 line;
#X text 580 70 on/off;
#X obj 598 95 tgl 15 0 empty empty empty 17 7 0 10 #fcfcfc #000000
#000000 0 1;
#X obj 599 351 r ON;
#X obj 388 214 metro 1;
#X obj 345 185 tgl 15 0 empty empty empty 17 7 0 10 #fcfcfc #000000
#000000 0 1;
#X obj 167 110 bng 15 250 50 0 empty empty empty 17 7 0 10 #fcfcfc
#000000 #000000;
#X obj 168 67 metro 1;
#X obj 117 26 tgl 15 0 empty empty empty 17 7 0 10 #fcfcfc #000000
#000000 0 1;
#X obj 97 145 random 10;
#X obj 184 145 random 10;
#X obj 268 141 random 10;
#X obj 110 0 r ON;
#X obj 363 140 r ON;
#X obj 598 142 s ON;
#X msg 198 29 tempo \$1 permin;
#X msg 418 145 tempo \$1 permin;
#X floatatom 487 49 7 0 0 0 - - - 0;
#X msg 487 5 100;
#X msg 423 8 40;
#X msg 561 11 280;
#X obj 705 170 tgl 15 0 empty empty empty 17 7 0 10 #fcfcfc #000000
#000000 0 1;
#X obj 1064 184 gemhead;
#X obj 1070 261 colorRGB;
#X obj 1077 341 scaleXYZ;
#X obj 1092 535 rotateXYZ;
#X obj 1082 611 cube;
#X obj 737 103 bng 15 250 50 0 empty empty empty 17 7 0 10 #fcfcfc
#000000 #000000;
#X floatatom 1205 429 5 0 0 0 - - - 0;
#X floatatom 1166 407 5 0 0 0 - - - 0;
#X obj 1351 345 snapshot~;
#X obj 1317 402 * 360;
#X floatatom 1290 443 5 0 0 0 - - - 0;
#X obj 1466 318 metro 50;
#X obj 1562 353 snapshot~;
#X obj 1528 410 * 360;
#X obj 1677 326 metro 50;
#X obj 1780 349 snapshot~;
#X obj 1746 406 * 360;
#X obj 1895 322 metro 50;
#X obj 1646 242 tgl 15 0 empty empty empty 17 7 0 10 #fcfcfc #000000
#000000 0 1;
#X obj 1667 209 r ON;
#X obj 1355 295 osc~ 0.4;
#X obj 1566 303 osc~ 0.3;
#X obj 1799 270 osc~ 0.5;
#X obj 1202 566 gemhead;
#X obj 1202 633 colorRGB;
#X obj 1206 722 scaleXYZ;
#X obj 1213 834 rotateXYZ;
#X obj 1203 910 cube;
#X floatatom 1326 728 5 0 0 0 - - - 0;
#X floatatom 1287 706 5 0 0 0 - - - 0;
#X obj 1472 644 snapshot~;
#X obj 1438 701 * 360;
#X floatatom 1411 742 5 0 0 0 - - - 0;
#X obj 1587 617 metro 50;
#X obj 1683 652 snapshot~;
#X obj 1649 709 * 360;
#X obj 1798 625 metro 50;
#X obj 1847 668 snapshot~;
#X obj 1867 705 * 360;
#X obj 2031 624 metro 50;
#X obj 1767 541 tgl 15 0 empty empty empty 17 7 0 10 #fcfcfc #000000
#000000 0 1;
#X obj 1803 511 r ON;
#X obj 1476 594 osc~ 0.4;
#X obj 1687 602 osc~ 0.3;
#X obj 1935 572 osc~ 0.5;
#X obj 898 129 tgl 15 0 empty empty empty 17 7 0 10 #fcfcfc #000000
#000000 0 1;
#X obj 930 62 bng 15 250 50 0 empty empty empty 17 7 0 10 #fcfcfc #000000
#000000;
#X obj 1398 558 / 2;
#X connect 2 0 1 0;
#X connect 3 0 1 0;
#X connect 4 0 1 0;
#X connect 5 0 6 0;
#X connect 6 0 7 0;
#X connect 7 0 8 0;
#X connect 8 0 9 0;
#X connect 10 0 11 0;
#X connect 11 0 9 0;
#X connect 11 0 62 0;
#X connect 11 0 85 0;
#X connect 12 0 6 2;
#X connect 13 0 6 3;
#X connect 14 0 6 1;
#X connect 15 0 7 3;
#X connect 15 0 7 2;
#X connect 15 0 7 1;
#X connect 15 0 60 1;
#X connect 15 0 60 2;
#X connect 15 0 60 3;
#X connect 15 0 105 0;
#X connect 16 0 8 2;
#X connect 17 0 8 1;
#X connect 18 0 19 0;
#X connect 19 0 20 0;
#X connect 20 0 17 0;
#X connect 21 0 8 3;
#X connect 22 0 19 0;
#X connect 23 0 22 0;
#X connect 23 0 26 0;
#X connect 23 0 29 0;
#X connect 24 0 25 0;
#X connect 25 0 16 0;
#X connect 26 0 24 0;
#X connect 27 0 28 0;
#X connect 28 0 21 0;
#X connect 29 0 27 0;
#X connect 30 0 24 0;
#X connect 31 0 27 0;
#X connect 32 0 33 0;
#X connect 32 0 34 0;
#X connect 33 0 35 0;
#X connect 34 0 36 0;
#X connect 35 0 36 0;
#X connect 36 0 15 0;
#X connect 38 0 50 0;
#X connect 39 0 23 0;
#X connect 40 0 32 0;
#X connect 41 0 40 0;
#X connect 42 0 45 0;
#X connect 42 0 46 0;
#X connect 42 0 47 0;
#X connect 43 0 42 0;
#X connect 44 0 43 0;
#X connect 45 0 14 0;
#X connect 46 0 12 0;
#X connect 47 0 13 0;
#X connect 48 0 44 0;
#X connect 49 0 41 0;
#X connect 51 0 43 0;
#X connect 52 0 40 0;
#X connect 53 0 52 0;
#X connect 53 0 51 0;
#X connect 54 0 53 0;
#X connect 54 0 63 0;
#X connect 55 0 53 0;
#X connect 56 0 53 0;
#X connect 56 0 104 0;
#X connect 57 0 58 0;
#X connect 58 0 59 0;
#X connect 59 0 60 0;
#X connect 60 0 61 0;
#X connect 61 0 62 0;
#X connect 63 0 57 0;
#X connect 64 0 61 2;
#X connect 65 0 61 1;
#X connect 66 0 67 0;
#X connect 67 0 65 0;
#X connect 68 0 61 3;
#X connect 69 0 66 0;
#X connect 70 0 71 0;
#X connect 71 0 64 0;
#X connect 72 0 70 0;
#X connect 73 0 74 0;
#X connect 74 0 68 0;
#X connect 75 0 73 0;
#X connect 76 0 69 0;
#X connect 76 0 72 0;
#X connect 76 0 75 0;
#X connect 77 0 76 0;
#X connect 78 0 66 0;
#X connect 79 0 70 0;
#X connect 80 0 73 0;
#X connect 81 0 82 0;
#X connect 82 0 83 0;
#X connect 83 0 84 0;
#X connect 84 0 85 0;
#X connect 86 0 84 2;
#X connect 87 0 84 1;
#X connect 88 0 89 0;
#X connect 89 0 87 0;
#X connect 90 0 84 3;
#X connect 91 0 88 0;
#X connect 92 0 93 0;
#X connect 93 0 86 0;
#X connect 94 0 92 0;
#X connect 95 0 96 0;
#X connect 96 0 90 0;
#X connect 97 0 95 0;
#X connect 98 0 91 0;
#X connect 98 0 94 0;
#X connect 98 0 97 0;
#X connect 99 0 98 0;
#X connect 100 0 88 0;
#X connect 101 0 92 0;
#X connect 102 0 95 0;
#X connect 103 0 81 0;
#X connect 104 0 103 0;
#X connect 105 0 83 1;
#X connect 105 0 83 2;
#X connect 105 0 83 3;
